<?xml version="1.0" encoding="utf-8"?>
<!-- Generator: Adobe Illustrator 21.1.0, SVG Export Plug-In . SVG Version: 6.00 Build 0)  -->
<svg version="1.1" id="Layer_1" xmlns="http://www.w3.org/2000/svg" xmlns:xlink="http://www.w3.org/1999/xlink" x="0px" y="0px"
	 viewBox="0 0 512 512" style="enable-background:new 0 0 512 512;" xml:space="preserve">
<style type="text/css">
	.st0{fill:#A4A9AD;}
	.st1{fill:#1E81FF;}
	.st2{fill:#0071CE;}
	.st3{opacity:0.2;enable-background:new    ;}
	.st4{fill:#333E48;}
	.st5{opacity:0.1;enable-background:new    ;}
	.st6{fill:#FFB819;}
	.st7{fill:#1E252B;}
</style>
<path class="st0" d="M438.3,122.7c-0.8-2.8-3.8-5.1-6.8-5.1H400c-2.9,0-6,2.3-6.8,5.1l-7.1,25.5c-0.8,2.8,1,5.1,3.9,5.1h51.3
	c2.9,0,4.7-2.3,3.9-5.1L438.3,122.7z"/>
<path class="st1" d="M24.9,340.6V165.4c0-14.7,12-26.7,26.7-26.7h408.9c14.7,0,26.7,12,26.7,26.7v175.2H24.9z"/>
<rect x="24.9" y="249.2" class="st2" width="462.3" height="91.4"/>
<rect x="24.9" y="267.6" class="st1" width="462.3" height="16"/>
<g>
	<path class="st0" d="M504,348.7c0,5.5-4.5,9.9-9.9,9.9h-22.4c-5.5,0-9.9-4.5-9.9-9.9v-16.1c0-5.5,4.5-9.9,9.9-9.9h22.4
		c5.5,0,9.9,4.5,9.9,9.9V348.7z"/>
	<path class="st0" d="M46,348.7c0,5.5-4.5,9.9-9.9,9.9H17.9c-5.5,0-9.9-4.5-9.9-9.9v-16.1c0-5.5,4.5-9.9,9.9-9.9H36
		c5.5,0,9.9,4.5,9.9,9.9L46,348.7L46,348.7z"/>
</g>
<path class="st3" d="M199.9,340.6c0-35.9-29.1-65-65-65s-65,29.1-65,65H199.9z"/>
<circle class="st4" cx="134.8" cy="340.6" r="53.8"/>
<circle class="st0" cx="134.8" cy="340.6" r="27.3"/>
<path class="st3" d="M442.2,340.6c0-35.9-29.1-65-65-65s-65,29.1-65,65H442.2z"/>
<circle class="st4" cx="377.2" cy="340.6" r="53.8"/>
<circle class="st0" cx="377.2" cy="340.6" r="27.3"/>
<path class="st4" d="M381.4,212.4c0,4.7,3.8,8.5,8.5,8.5h62.2c4.7,0,8.5-3.8,8.5-8.5v-37c0-4.7-3.8-8.5-8.5-8.5h-62.2
	c-4.7,0-8.5,3.8-8.5,8.5V212.4z"/>
<path class="st5" d="M452.1,166.8h-62.2c-4.7,0-8.5,3.8-8.5,8.5v11c0-4.7,3.8-8.5,8.5-8.5h62.2c4.7,0,8.5,3.8,8.5,8.5v-11
	C460.7,170.7,456.8,166.8,452.1,166.8z"/>
<path class="st4" d="M271.4,212.4c0,4.7,3.8,8.5,8.5,8.5h62.2c4.7,0,8.5-3.8,8.5-8.5v-37c0-4.7-3.8-8.5-8.5-8.5h-62.2
	c-4.7,0-8.5,3.8-8.5,8.5V212.4L271.4,212.4z"/>
<path class="st5" d="M342.1,166.8h-62.2c-4.7,0-8.5,3.8-8.5,8.5v11c0-4.7,3.8-8.5,8.5-8.5h62.2c4.7,0,8.5,3.8,8.5,8.5v-11
	C350.6,170.7,346.8,166.8,342.1,166.8z"/>
<path class="st4" d="M161.4,212.4c0,4.7,3.8,8.5,8.5,8.5h62.2c4.7,0,8.5-3.8,8.5-8.5v-37c0-4.7-3.8-8.5-8.5-8.5h-62.2
	c-4.7,0-8.5,3.8-8.5,8.5V212.4L161.4,212.4z"/>
<path class="st5" d="M232.1,166.8h-62.2c-4.7,0-8.5,3.8-8.5,8.5v11c0-4.7,3.8-8.5,8.5-8.5h62.2c4.7,0,8.5,3.8,8.5,8.5v-11
	C240.6,170.7,236.8,166.8,232.1,166.8z"/>
<path class="st4" d="M51.3,212.4c0,4.7,3.8,8.5,8.5,8.5h62.2c4.7,0,8.5-3.8,8.5-8.5v-37c0-4.7-3.8-8.5-8.5-8.5H59.9
	c-4.7,0-8.5,3.8-8.5,8.5C51.3,175.4,51.3,212.4,51.3,212.4z"/>
<path class="st5" d="M122.1,166.8H59.9c-4.7,0-8.5,3.8-8.5,8.5v11c0-4.7,3.8-8.5,8.5-8.5h62.2c4.7,0,8.5,3.8,8.5,8.5v-11
	C130.6,170.7,126.8,166.8,122.1,166.8z"/>
<g>
	<path class="st6" d="M487.1,322.6h-22.9c-2.9,0-5.3-2.4-5.3-5.3v-13.5c0-2.9,2.4-5.3,5.3-5.3h22.9V322.6z"/>
	<path class="st6" d="M24.9,322.6h22.9c2.9,0,5.3-2.4,5.3-5.3v-13.5c0-2.9-2.4-5.3-5.3-5.3H24.9V322.6z"/>
</g>
<path class="st7" d="M134.8,305.3c-19.5,0-35.3,15.8-35.3,35.3c0,19.5,15.8,35.3,35.3,35.3s35.3-15.8,35.3-35.3
	C170.1,321.1,154.3,305.3,134.8,305.3z M134.8,359.9c-10.6,0-19.3-8.6-19.3-19.3c0-10.6,8.6-19.3,19.3-19.3s19.3,8.6,19.3,19.3
	C154.1,351.2,145.5,359.9,134.8,359.9z M122.1,158.8H59.9c-9.1,0-16.6,7.4-16.6,16.6v37c0,9.1,7.4,16.6,16.6,16.6h62.2
	c9.1,0,16.6-7.4,16.6-16.6v-37C138.6,166.2,131.2,158.8,122.1,158.8z M122.6,212.4c0,0.3-0.3,0.5-0.5,0.5H59.9
	c-0.3,0-0.5-0.3-0.5-0.5v-37c0-0.3,0.3-0.5,0.5-0.5h62.2c0.3,0,0.5,0.3,0.5,0.5C122.6,175.4,122.6,212.4,122.6,212.4z M377.2,305.3
	c-19.5,0-35.3,15.8-35.3,35.3c0,19.5,15.8,35.3,35.3,35.3c19.5,0,35.3-15.8,35.3-35.3C412.5,321.1,396.6,305.3,377.2,305.3z
	 M377.2,359.9c-10.6,0-19.3-8.6-19.3-19.3c0-10.6,8.6-19.3,19.3-19.3s19.3,8.6,19.3,19.3C396.4,351.2,387.8,359.9,377.2,359.9z
	 M495.2,314.6V165.4c0-19.1-15.6-34.7-34.7-34.7h-11.6l-2.8-10.1c-1.7-6.3-8-11-14.5-11H400c-6.5,0-12.7,4.7-14.5,11l-2.8,10.1H51.6
	c-19.1,0-34.7,15.6-34.7,34.7v149.2C7.5,315.2,0,323,0,332.5v16.1c0,9.9,8.1,17.9,17.9,17.9H36c9.9,0,17.9-8.1,17.9-17.9v-0.1h19.6
	c3.9,30.3,29.9,53.8,61.3,53.8s57.4-23.5,61.3-53.8h119.8c3.9,30.3,29.9,53.8,61.3,53.8c31.4,0,57.4-23.5,61.3-53.8h15.3v0.1
	c0,9.9,8.1,17.9,17.9,17.9h22.4c9.9,0,17.9-8.1,17.9-17.9v-16.1C512,323,504.5,315.2,495.2,314.6z M400.8,125.6h30l1.4,5.1h-32.8
	L400.8,125.6z M38,348.7c0,1-0.9,1.9-1.9,1.9H17.9c-1,0-1.9-0.9-1.9-1.9v-16.1c0-1,0.9-1.9,1.9-1.9H36c1,0,1.9,0.9,1.9,1.9L38,348.7
	L38,348.7z M134.8,386.4c-25.3,0-45.8-20.6-45.8-45.8c0-25.3,20.5-45.8,45.8-45.8s45.8,20.5,45.8,45.8
	C180.6,365.9,160.1,386.4,134.8,386.4z M377.2,386.4c-25.3,0-45.8-20.6-45.8-45.8c0-25.3,20.5-45.8,45.8-45.8s45.8,20.5,45.8,45.8
	C423,365.9,402.4,386.4,377.2,386.4z M453.8,332.5L453.8,332.5l-15.3,0.1c-3.9-30.3-29.9-53.8-61.3-53.8
	c-31.4,0-57.4,23.5-61.3,53.8H196.1c-3.9-30.3-29.9-53.8-61.3-53.8c-31.4,0-57.4,23.5-61.3,53.8H54v-0.1c0-9.9-8.1-17.9-17.9-17.9
	h-3.2V165.4c0-10.3,8.4-18.7,18.7-18.7h408.9c10.3,0,18.7,8.4,18.7,18.7v149.2h-7.4C461.8,314.6,453.8,322.6,453.8,332.5z
	 M496,348.7c0,1-0.9,1.9-1.9,1.9h-22.4c-1,0-1.9-0.9-1.9-1.9v-16.1c0-1,0.9-1.9,1.9-1.9h22.4c1,0,1.9,0.9,1.9,1.9V348.7z
	 M452.1,158.8h-62.2c-9.1,0-16.6,7.4-16.6,16.6v37c0,9.1,7.4,16.6,16.6,16.6h62.2c9.1,0,16.6-7.4,16.6-16.6v-37
	C468.7,166.2,461.2,158.8,452.1,158.8z M452.7,212.4c0,0.3-0.3,0.5-0.5,0.5h-62.2c-0.3,0-0.5-0.3-0.5-0.5v-37c0-0.3,0.3-0.5,0.5-0.5
	h62.2c0.3,0,0.5,0.3,0.5,0.5V212.4z M342.1,158.8h-62.2c-9.1,0-16.6,7.4-16.6,16.6v37c0,9.1,7.4,16.6,16.6,16.6h62.2
	c9.1,0,16.6-7.4,16.6-16.6v-37C358.7,166.2,351.2,158.8,342.1,158.8z M342.6,212.4c0,0.3-0.3,0.5-0.5,0.5h-62.2
	c-0.3,0-0.5-0.3-0.5-0.5v-37c0-0.3,0.3-0.5,0.5-0.5h62.2c0.3,0,0.5,0.3,0.5,0.5V212.4z M232.1,158.8h-62.2
	c-9.1,0-16.6,7.4-16.6,16.6v37c0,9.1,7.4,16.6,16.6,16.6h62.2c9.1,0,16.6-7.4,16.6-16.6v-37C248.6,166.2,241.2,158.8,232.1,158.8z
	 M232.6,212.4c0,0.3-0.3,0.5-0.5,0.5h-62.2c-0.3,0-0.5-0.3-0.5-0.5v-37c0-0.3,0.3-0.5,0.5-0.5h62.2c0.3,0,0.5,0.3,0.5,0.5V212.4
	L232.6,212.4z"/>
</svg>
