<?xml version="1.0" encoding="utf-8"?>
<!-- Generator: Adobe Illustrator 21.1.0, SVG Export Plug-In . SVG Version: 6.00 Build 0)  -->
<svg version="1.1" id="Group_2793" xmlns="http://www.w3.org/2000/svg" xmlns:xlink="http://www.w3.org/1999/xlink" x="0px" y="0px"
	 viewBox="0 0 512 504.8" style="enable-background:new 0 0 512 504.8;" xml:space="preserve">
<style type="text/css">
	.st0{fill:#FFFFFF;}
	.st1{fill:#AFAFAF;}
	.st2{fill:#333E48;}
	.st3{fill:#1E81FF;}
	.st4{fill:#0C0D19;}
</style>
<g>
	<rect id="Rectangle_434" x="248.4" y="52.6" class="st0" width="252.6" height="265.8"/>
	<rect id="Rectangle_435" x="248.4" y="10" class="st1" width="252.6" height="42.6"/>
	<rect id="Rectangle_436" x="9" y="356.8" class="st2" width="492" height="138"/>
	<rect id="Rectangle_437" x="9" y="10" class="st3" width="193.7" height="308.5"/>
	<path id="Union_1" class="st4" d="M9,504.8c-5.5,0-10-4.5-10-10v-138c0-5.5,4.5-10,10-10h492c5.5,0,10,4.5,10,10v138
		c0,5.5-4.5,10-10,10H9z M452.4,484.8H491v-26h-38.6V484.8z M389.9,484.8h42.5v-26h-42.5V484.8z M327.5,484.8H370v-26h-42.5V484.8z
		 M202.5,484.8h105v-26h-105V484.8z M140,484.8h42.5v-26H140V484.8z M77.6,484.8h42.5v-26H77.6V484.8z M19,484.8h38.6v-26H19V484.8z
		 M475.4,438.8H491v-26h-15.6V438.8z M242,438.8h42.5v-26H242V438.8z M54.6,438.8h42.5v-26H54.6V438.8z M429.4,438.8h26v-26h-26
		V438.8z M366.9,438.8h42.5v-26h-42.5V438.8z M304.5,438.8H347v-26h-42.5V438.8z M179.5,438.8H222v-26h-42.5V438.8z M117.1,438.8
		h42.5v-26h-42.5C117.1,412.8,117.1,438.8,117.1,438.8z M19,438.8h15.6v-26H19V438.8z M452.4,392.8H491v-26h-38.6V392.8z
		 M389.9,392.8h42.5v-26h-42.5V392.8z M327.5,392.8H370v-26h-42.5V392.8z M265,392.8h42.5v-26H265V392.8z M202.5,392.8H245v-26
		h-42.5V392.8z M140.1,392.8h42.5v-26h-42.5V392.8z M77.6,392.8h42.5v-26H77.6V392.8z M19,392.8h38.6v-26H19V392.8z M248.4,328.4
		c-5.5,0-10-4.5-10-10V10c0-5.5,4.5-10,10-10H501c5.5,0,10,4.5,10,10l0,0v308.4c0,5.5-4.5,10-10,10H248.4z M258.4,308.4H491V62.6
		H258.4V308.4z M258.4,42.6H491V20H258.4V42.6z M9,328.4c-5.5,0-10-4.5-10-10l0,0V10C-1,4.5,3.5,0,9,0l0,0h193.7c5.5,0,10,4.5,10,10
		l0,0v308.4c0,5.5-4.5,10-10,10H9z M19,308.4h173.7V20H19V308.4z M51.2,278.2c-5.5,0-10-4.5-10-10s4.5-10,10-10h54.7
		c5.5,0,10,4.5,10,10s-4.5,10-10,10H51.2z M51.2,236.6c-5.5,0-10-4.5-10-10s4.5-10,10-10l0,0h109.2c5.5,0,10,4.5,10,10
		s-4.5,10-10,10l0,0H51.2z M415.3,226.5c-3.9-3.9-3.9-10.2,0-14.1l0,0l31.5-31.6l-31.5-31.6c-3.9-3.9-4-10.2-0.1-14.1
		s10.2-4,14.1-0.1l0.1,0.1l38.6,38.6c3.9,3.9,3.9,10.2,0,14.1l-38.6,38.6C425.5,230.4,419.2,230.4,415.3,226.5L415.3,226.5
		L415.3,226.5z M320,226.5l-38.6-38.6c-3.9-3.9-3.9-10.2,0-14.1l38.6-38.6c3.9-3.9,10.2-4,14.1-0.2s4,10.2,0.2,14.1
		c-0.1,0.1-0.1,0.1-0.2,0.2l-31.6,31.6l31.6,31.6c3.9,3.9,3.9,10.2,0,14.1C330.3,230.5,324,230.5,320,226.5
		C320.1,226.6,320,226.6,320,226.5L320,226.5z M360.4,221.2c-5.4-1.3-8.6-6.8-7.3-12.1l0,0l23.7-94.6c1.3-5.4,6.8-8.6,12.1-7.3
		c5.4,1.3,8.6,6.8,7.3,12.1l-23.7,94.6C371.2,219.3,365.8,222.5,360.4,221.2L360.4,221.2L360.4,221.2z M51.2,195
		c-5.5,0-10-4.5-10-10s4.5-10,10-10h54.7c5.5,0,10,4.5,10,10s-4.5,10-10,10H51.2z M51.2,153.4c-5.5,0-10-4.5-10-10s4.5-10,10-10l0,0
		h109.2c5.5,0,10,4.5,10,10s-4.5,10-10,10l0,0H51.2z M51.2,111.8c-5.5,0-10-4.5-10-10s4.5-10,10-10h54.7c5.5,0,10,4.5,10,10
		s-4.5,10-10,10l0,0H51.2z M51.2,70.2c-5.5,0-10-4.5-10-10s4.5-10,10-10h109.2c5.5,0,10,4.5,10,10s-4.5,10-10,10l0,0H51.2z"/>
</g>
</svg>
