<?xml version="1.0" encoding="utf-8"?>
<!-- Generator: Adobe Illustrator 21.1.0, SVG Export Plug-In . SVG Version: 6.00 Build 0)  -->
<svg version="1.1" id="Capa_1" xmlns="http://www.w3.org/2000/svg" xmlns:xlink="http://www.w3.org/1999/xlink" x="0px" y="0px"
	 viewBox="0 0 715.8 1088.9" style="enable-background:new 0 0 715.8 1088.9;" xml:space="preserve">
<style type="text/css">
	.st0{fill:#A4A9AD;}
	.st1{opacity:0.2;enable-background:new    ;}
	.st2{opacity:0.3;enable-background:new    ;}
	.st3{opacity:0.1;enable-background:new    ;}
	.st4{fill:#333E48;}
	.st5{fill:#D1D3D3;}
	.st6{fill:#1E81FF;}
	.st7{fill:#0C0D19;}
</style>
<g>
	<rect id="Rectangle_400" x="321.4" y="272.4" class="st0" width="73" height="460.4"/>
	<path id="Path_6862" class="st1" d="M357.9,660.9l-36.5-28.6v100.5h73V632.3L357.9,660.9z"/>
	<path id="Path_6863" class="st2" d="M321.4,272.4V405c24.1,4.8,48.9,4.8,73,0V272.4H321.4z"/>
	
		<rect id="Rectangle_401" x="359" y="547.4" transform="matrix(0.6169 -0.7871 0.7871 0.6169 -448.4341 603.279)" class="st0" width="73" height="429.7"/>
	<path id="Path_6864" class="st3" d="M347.7,678.5l-59.1,46.4l59.1,46.4l59.1-46.4L347.7,678.5z"/>
	<path id="Path_6865" class="st1" d="M213.4,646.3l-4.6,16.1l62.1,48.6l21.5-75.9L248.9,601L213.4,646.3z"/>
	<path id="Path_6866" class="st3" d="M374.4,699.4l-59.1,46.4l59.1,46.4l59.1-46.4L374.4,699.4z"/>
	
		<rect id="Rectangle_402" x="105.5" y="725.8" transform="matrix(0.7871 -0.6169 0.6169 0.7871 -401.996 359.9368)" class="st0" width="429.7" height="73"/>
	<path id="Path_6867" class="st1" d="M145.2,887l28.6,36.5l47.5-37.2L255,767.1l-97.5,76.4L145.2,887z"/>
	<path id="Path_6868" class="st1" d="M466.9,601l-43.5,34.1l21.5,75.9l62.1-48.6l-4.6-16.1L466.9,601z"/>
	<path id="Path_6869" class="st1" d="M558.3,843.5l-97.5-76.4l33.8,119.2l47.5,37.2l28.6-36.5L558.3,843.5z"/>
	<path id="Path_6870" class="st4" d="M567.5,1039.1L357.9,299.2l-209.6,739.9l-70.2-19.9l244.7-863.8c5.5-19.4,25.7-30.6,45-25.2
		c12.2,3.5,21.7,13,25.2,25.2l244.7,863.8L567.5,1039.1z"/>
	<path id="Path_6871" class="st1" d="M393,155.4c-5.5-19.4-25.7-30.6-45-25.2c-12.2,3.5-21.7,13-25.2,25.2l-67.1,236.8
		c21,12.8,44.3,21.6,68.5,25.8l33.7-118.8L391.6,418c24.3-4.2,47.5-12.9,68.5-25.8L393,155.4z"/>
	<circle id="Ellipse_259" class="st5" cx="357.9" cy="224.7" r="131.6"/>
	<g id="Group_2768" transform="translate(98.756 0.001)">
		<path id="Path_6872" class="st6" d="M87,381.3c-5.2,0-10-2.3-13.3-6.3c-71-87.6-71-213,0-300.5c5.9-7.3,16.7-8.5,24.1-2.5
			s8.5,16.7,2.5,24.1c-60.8,75-60.8,182.4,0,257.5c5.9,7.3,4.8,18.1-2.5,24.1C94.7,379.9,90.9,381.3,87,381.3z"/>
		<path id="Path_6873" class="st6" d="M3,449.4c-5.2,0-10-2.3-13.3-6.3c-103.2-127.3-103.2-309.4,0-436.7c5.9-7.4,16.7-8.5,24-2.6
			s8.5,16.7,2.6,24c0,0-0.1,0.1-0.1,0.1c-93,114.7-93,278.9,0,393.6c5.9,7.3,4.8,18.1-2.5,24.1C10.7,448,6.9,449.4,3,449.4L3,449.4z
			"/>
		<path id="Path_6874" class="st6" d="M431.3,381.3c-9.4,0-17.1-7.7-17.1-17.1c0-3.9,1.4-7.7,3.8-10.8c60.8-75,60.8-182.4,0-257.5
			c-5.9-7.3-4.8-18.1,2.5-24.1s18.1-4.8,24.1,2.5c71,87.6,71,213,0,300.5C441.4,379,436.5,381.3,431.3,381.3z"/>
		<path id="Path_6875" class="st6" d="M515.3,449.4c-9.4,0-17.1-7.7-17.1-17.1c0-3.9,1.4-7.7,3.8-10.8c93-114.7,93-278.9,0-393.6
			c-6-7.3-4.9-18.1,2.4-24.1c7.3-6,18.1-4.9,24.1,2.4c0,0,0.1,0.1,0.1,0.1c103.2,127.3,103.2,309.4,0,436.7
			C525.4,447,520.5,449.4,515.3,449.4z"/>
	</g>
	<g id="Group_2769" transform="translate(104.811 986.482)">
		<path id="Path_6876" class="st0" d="M104.5,13.3C104.5,6,98.6,0,91.2,0H-74.4c-7.4,0-13.3,6-13.3,13.3V72c0,7.4,6,13.3,13.3,13.3
			H91.2c7.4,0,13.3-6,13.3-13.3L104.5,13.3L104.5,13.3z"/>
		<path id="Path_6877" class="st0" d="M401.7,13.3C401.7,6,407.6,0,415,0h165.6c7.4,0,13.3,6,13.3,13.3V72c0,7.4-6,13.3-13.3,13.3
			H415c-7.4,0-13.3-6-13.3-13.3V13.3z"/>
	</g>
	<path id="Path_6878" class="st7" d="M685.4,969.4h-44L460.8,331.8c29.3-28,45.8-66.7,45.8-107.2c0-82-66.7-148.7-148.7-148.7
		s-148.7,66.7-148.7,148.7c0,40.5,16.5,79.2,45.8,107.2L74.4,969.4h-44C13.6,969.4,0,983,0,999.8v58.6c0,16.8,13.6,30.4,30.4,30.4
		H196c16.8,0,30.4-13.6,30.4-30.4v-58.6c0-16.8-13.6-30.4-30.4-30.4h-10.2l12.2-43.2l159.8-125.2l159.9,125.6l12.1,42.9h-10.2
		c-16.8,0-30.4,13.6-30.4,30.4v58.6c0,16.8,13.6,30.4,30.4,30.4h165.6c16.8,0,30.4-13.6,30.4-30.4v-58.6
		C715.8,983,702.2,969.4,685.4,969.4z M243.5,224.7c0-63.2,51.2-114.4,114.4-114.4c63.2,0,114.4,51.2,114.4,114.4
		c0,63.2-51.2,114.4-114.4,114.4l0,0C294.7,339.1,243.5,287.9,243.5,224.7z M378.3,434.1v214.7l-20.4,16l-20.4-16V434.1l17.2-60.8
		c1.1,0,2.1,0.1,3.2,0.1s2.1-0.1,3.2-0.1L378.3,434.1z M266.2,685.6l11.4-40.3l52.5,41.2l-31.4,24.6L266.2,685.6z M271,732.8
		l-23.4,18.3l8.5-30L271,732.8z M287.7,609.7l15.6-54.9v67.1L287.7,609.7z M192.2,1003.6v51.1h-158v-51.1H192.2z M150.3,969.4H110
		l174.4-615.6c11.3,6.5,23.5,11.5,36.1,14.8L150.3,969.4z M213.9,870.3l17.9-63.3l206.3-161.7l11.4,40.3L213.9,870.3z M412.5,621.9
		v-67.1l15.6,54.9L412.5,621.9z M459.7,721.2l8.5,30l-23.4-18.3L459.7,721.2z M385.6,779.2l31.4-24.6L484,807l18,63.5L385.6,779.2z
		 M395.3,368.6c12.6-3.3,24.8-8.3,36.1-14.8l174.4,615.6h-40.3L395.3,368.6z M681.6,1054.7h-158v-51.1h158L681.6,1054.7z"/>
</g>
</svg>
