<?xml version="1.0" encoding="utf-8"?>
<!-- Generator: Adobe Illustrator 21.1.0, SVG Export Plug-In . SVG Version: 6.00 Build 0)  -->
<svg version="1.1" id="Group_2810" xmlns="http://www.w3.org/2000/svg" xmlns:xlink="http://www.w3.org/1999/xlink" x="0px" y="0px"
	 viewBox="0 0 512 425.7" style="enable-background:new 0 0 512 425.7;" xml:space="preserve">
<style type="text/css">
	.st0{fill:#D1D3D3;}
	.st1{fill:#FF5959;}
	.st2{fill:#666666;}
	.st3{fill:#FAE1B2;}
	.st4{fill:#1E81FF;}
	.st5{fill:#D0D2D2;}
	.st6{fill:#828689;}
	.st7{fill:#FFB61E;}
	.st8{fill:#0C0D19;}
</style>
<g>
	<path id="Path_7088" class="st0" d="M496,126.8c9.9,20,9.9,43.4,0,63.4h-36.5c9.9-20,9.9-43.4,0-63.4H496z"/>
	<path id="Path_7089" class="st1" d="M427.4,417.1H237.8V227.5l149.9,149.9L427.4,417.1z M270,384.9h79.7L270,305.2L270,384.9
		L270,384.9z"/>
	<path id="Path_7090" class="st2" d="M309.6,141.7c6.8,10.2,6.8,23.5,0,33.7l-25.1-16.8L309.6,141.7z"/>
	<path id="Path_7091" class="st3" d="M331.8,126.9c8.7,20.2,8.7,43.2,0,63.4v0l-22.2-14.9c6.8-10.2,6.8-23.5,0-33.7L331.8,126.9
		L331.8,126.9z"/>
	<path id="Path_7092" class="st4" d="M466.6,158.5h0.4c0,11-2.5,21.9-7.4,31.7H331.8v0c4.3-10,6.6-20.8,6.6-31.7L466.6,158.5z"/>
	<path id="Path_7093" class="st4" d="M338.4,158.5c0-10.9-2.2-21.7-6.6-31.7v0h127.8c4.9,9.9,7.4,20.7,7.4,31.7H338.4z"/>
	<path id="Path_7094" class="st5" d="M76.8,89.9v219.4H42.7c-18.8,0-34.1,15.3-34.1,34.1c0,0,0,0,0,0V55.8
		c0-18.8,15.3-34.1,34.1-34.1c0,0,0,0,0,0h34.1L76.8,89.9L76.8,89.9z"/>
	<g id="Group_2799" transform="translate(-6193 2328.841)">
		<path id="Path_7095" class="st6" d="M6542.7-1943.9H6463v-79.7L6542.7-1943.9z"/>
		<path id="Path_7096" class="st6" d="M6633.5-2138.6v187.2h-52.7l-149.9-149.9v149.9h-195.1c-18.8,0-34.1-15.2-34.1-34.1
			s15.2-34.1,34.1-34.1c0,0,0,0,0,0h34.1V-2239h69.3v196.2h53.4V-2239h240.9v37h-108.7l-22.2,14.9l-25.1,16.8l25.1,16.8l22.2,14.9
			H6633.5z"/>
	</g>
	<path id="Path_7097" class="st7" d="M146.1,85.8V8.6h53.4v277.5h-53.4V85.8z"/>
	<g id="Group_2800" transform="translate(-6193 2328.841)">
		<path id="Union_10" class="st8" d="M6430.8-1903.2c-4.8,0-8.6-3.9-8.6-8.6c0,0,0,0,0,0v-31h-186.5c-11.3,0-22.2-4.5-30.2-12.5
			c-8-8-12.5-18.9-12.5-30.2c0-0.1,0-0.3,0-0.4v-287.1c0-11.3,4.5-22.2,12.5-30.2c8-8,18.9-12.5,30.2-12.5h34.1
			c4.8,0,8.6,3.9,8.6,8.6v59.6h52.1v-72.6c0-4.8,3.9-8.6,8.6-8.6c0,0,0,0,0,0h53.4c4.8,0,8.6,3.9,8.6,8.6c0,0,0,0,0,0v72.6h232.3
			c4.8,0,8.6,3.9,8.6,8.6v28.4h46.9c3.3,0,6.3,1.9,7.7,4.8c11,22.4,11,48.6,0,71c-1.5,2.9-4.4,4.8-7.7,4.8h-46.9v178.6
			c0,4.8-3.9,8.6-8.6,8.6h-31.9l24.9,24.9c2.5,2.5,3.2,6.2,1.9,9.4c-1.3,3.2-4.5,5.3-8,5.3L6430.8-1903.2z M6439.4-1920.4
			L6439.4-1920.4h160.2l-160.2-160.2V-1920.4z M6210.2-1985.9v0.3c0,6.8,2.7,13.3,7.5,18c4.8,4.8,11.3,7.5,18,7.5h186.5v-141.3
			c0-3.5,2.1-6.6,5.3-8c3.2-1.3,6.9-0.6,9.4,1.9l147.4,147.4h40.5V-2130h-100c-1.7,0-3.4-0.5-4.8-1.5l-47.3-31.7
			c-2.4-1.6-3.8-4.3-3.8-7.2c0-2.9,1.4-5.6,3.8-7.2l47.3-31.7c1.4-1,3.1-1.5,4.8-1.5h100v-19.7h-223.7v187.6c0,4.8-3.9,8.6-8.6,8.6
			l0,0h-53.4c-4.8,0-8.6-3.9-8.6-8.6v-187.6h-52.1v210.7c0,4.8-3.9,8.6-8.6,8.6h-34.1C6221.8-2011,6210.4-1999.8,6210.2-1985.9
			L6210.2-1985.9z M6217.7-2291.1c-4.8,4.8-7.5,11.3-7.5,18v253.3c7.4-5.5,16.3-8.5,25.5-8.5h25.5v-270.3h-25.5
			C6229-2298.6,6222.5-2295.9,6217.7-2291.1z M6347.7-2051.4h36.2v-260.2h-36.2v19h12.1c4.8,0,8.6,3.9,8.6,8.6c0,0,0,0,0,0
			c0,4.8-3.9,8.6-8.6,8.6c0,0,0,0,0,0h-12.1v23.8h12.1c4.8,0,8.6,3.9,8.6,8.6c0,0,0,0,0,0c0,4.8-3.9,8.6-8.6,8.6c0,0,0,0,0,0h-12.1
			v23.8h12.1c4.8,0,8.6,3.9,8.6,8.6c0,0,0,0,0,0c0,4.8-3.9,8.6-8.6,8.6c0,0,0,0,0,0h-12.1v23.8h12.1c4.8,0,8.6,3.9,8.6,8.6
			c0,0,0,0,0,0c0,4.8-3.9,8.6-8.6,8.6c0,0,0,0,0,0h-12.1v23.8h12.1c4.8,0,8.6,3.9,8.6,8.6c0,0,0,0,0,0c0,4.8-3.9,8.6-8.6,8.6
			c0,0,0,0,0,0h-12.1v23.8h12.1c4.8,0,8.6,3.9,8.6,8.6c0,0,0,0,0,0c0,4.8-3.9,8.6-8.6,8.6c0,0,0,0,0,0h-12.1L6347.7-2051.4z
			 M6665.2-2147.2h18.3c5.8-14.8,5.8-31.3,0-46.2h-18.3C6669.7-2178.3,6669.7-2162.3,6665.2-2147.2L6665.2-2147.2z M6536.9-2147.2
			h110.1c1.8-4.7,3.1-9.5,3.8-14.5h-111.2C6539-2156.8,6538.2-2151.9,6536.9-2147.2L6536.9-2147.2z M6513.8-2184.2
			c1.7,4.4,2.6,9.2,2.6,13.9c0,4.8-0.9,9.5-2.6,13.9l6.5,4.4c3.2-12,3.2-24.6,0-36.7L6513.8-2184.2z M6493-2170.3l5.8,3.9
			c0.2-1.3,0.4-2.6,0.4-3.9c0-1.3-0.1-2.6-0.4-3.9L6493-2170.3z M6539.5-2178.9h111.2c-0.7-5-1.9-9.8-3.8-14.5h-110.1
			C6538.2-2188.6,6539-2183.8,6539.5-2178.9L6539.5-2178.9z M6463-1935.3c-4.8,0-8.6-3.9-8.6-8.6c0,0,0,0,0,0v-79.7
			c0-3.5,2.1-6.6,5.3-8c3.2-1.3,6.9-0.6,9.4,1.9l79.7,79.7c2.5,2.5,3.2,6.2,1.9,9.4c-1.3,3.2-4.5,5.3-8,5.3L6463-1935.3z
			 M6471.6-1952.6h50.3l-50.3-50.3V-1952.6z"/>
	</g>
</g>
</svg>
