<?xml version="1.0" encoding="utf-8"?>
<!-- Generator: Adobe Illustrator 21.1.0, SVG Export Plug-In . SVG Version: 6.00 Build 0)  -->
<svg version="1.1" id="Capa_1" xmlns="http://www.w3.org/2000/svg" xmlns:xlink="http://www.w3.org/1999/xlink" x="0px" y="0px"
	 viewBox="0 0 102 51.9" style="enable-background:new 0 0 102 51.9;" xml:space="preserve">
<style type="text/css">
	.st0{fill:#D1D3D3;}
	.st1{opacity:0.1;enable-background:new    ;}
	.st2{fill:#1E81FF;}
	.st3{fill:#00B3E3;}
	.st4{fill:#FFFFFF;}
	.st5{fill:#333E48;}
	.st6{fill:#A4A9AD;}
	.st7{opacity:0.2;enable-background:new    ;}
	.st8{fill:#0C0D19;}
</style>
<path id="Path_6875" class="st0" d="M64,8c0.2,0.9-0.4,1.9-1.4,2.1c-0.1,0-0.3,0-0.4,0h-6.3c-1,0-1.8-0.7-1.8-1.7c0-0.1,0-0.3,0-0.4
	l0.7-4.3C55,2.5,56,1.6,57.2,1.6h3.6c1.2,0,2.2,0.9,2.4,2.1L64,8z"/>
<path id="Path_6876" class="st1" d="M64,8l-0.3-2.1h-9.2L54.2,8c-0.2,0.9,0.4,1.9,1.4,2.1c0.1,0,0.3,0,0.4,0h6.3
	c1,0,1.8-0.7,1.8-1.7C64.1,8.2,64.1,8.1,64,8L64,8z"/>
<path id="Path_6877" class="st2" d="M95,27.3c-0.3-3-2.4-5.3-5.3-5.3H79l-6.4-10.2c-1.9-2.7-4.9-4.3-8.2-4.5H26.8
	C23.7,7.4,21,9.5,20,12.4l-2.7,9.5l0,0h-6.1c-2.9,0-5.3,2.4-5.3,5.3V38h90.4L95,27.3z"/>
<path id="Path_6878" class="st3" d="M95.1,28.2h-6.4v5.2h7L95.1,28.2z"/>
<path id="Path_6879" class="st4" d="M89.9,33.4h-1.8c-0.4,0-0.7-0.3-0.7-0.7V29c0-0.4,0.3-0.7,0.7-0.7h1.8V33.4z"/>
<path id="Path_6880" class="st1" d="M26,26.4c-6.7,0-12.3,5-13,11.6h26C38.3,31.4,32.7,26.4,26,26.4z"/>
<circle id="Ellipse_264" class="st5" cx="26" cy="39.5" r="10.7"/>
<circle id="Ellipse_265" class="st6" cx="26" cy="39.5" r="5.4"/>
<path id="Path_6881" class="st1" d="M73.2,26.4c-6.7,0-12.3,5-13,11.6h26C85.5,31.4,79.9,26.4,73.2,26.4z"/>
<circle id="Ellipse_266" class="st5" cx="73.2" cy="39.5" r="10.7"/>
<circle id="Ellipse_267" class="st6" cx="73.2" cy="39.5" r="5.4"/>
<g id="Group_2759" transform="translate(1.585 33.36)">
	<path id="Path_6882" class="st5" d="M98.9,5.2c0,1.1-0.9,2-2,2h-4.5c-1.1,0-2-0.9-2-2V2c0-1.1,0.9-2,2-2h4.5c1.1,0,2,0.9,2,2V5.2z"
		/>
	<path id="Path_6883" class="st5" d="M8.4,5.2c0,1.1-0.9,2-2,2H1.9c-1.1,0-2-0.9-2-2V2c0-1.1,0.9-2,2-2h4.5c1.1,0,2,0.9,2,2V5.2z"/>
</g>
<rect id="Rectangle_379" x="5.8" y="28.2" class="st3" width="5.8" height="5.2"/>
<path id="Path_6884" class="st4" d="M10.4,33.4h1.8c0.4,0,0.7-0.3,0.7-0.7V29c0-0.4-0.3-0.7-0.7-0.7h-1.8V33.4z"/>
<path id="Path_6885" class="st3" d="M48.3,13.8c0-1.2,0.9-2.1,2.1-2.1h14.2c1.3,0.1,2.5,0.7,3.3,1.8l3.3,5.1c0.6,1,0.2,1.8-1,1.8
	H50.4c-1.2,0-2.1-0.9-2.1-2.1V13.8L48.3,13.8L48.3,13.8z"/>
<g id="Group_2760" transform="translate(25.476 11.626)">
	<path id="Path_6886" class="st5" d="M22.8,2.1c0-1.2,0.9-2.1,2.1-2.1h14.2c1.3,0.1,2.5,0.7,3.3,1.8l3.3,5.1c0.6,1,0.2,1.8-1,1.8
		H24.9c-1.2,0-2.1-0.9-2.1-2.1V2.1L22.8,2.1L22.8,2.1z"/>
	<path id="Path_6887" class="st5" d="M1.6,2C2,0.8,3.1,0,4.4,0h12c1.2,0,2.1,0.9,2.1,2.1v4.4c0,1.2-0.9,2.1-2.1,2.1H1.6
		C0.8,8.7,0.1,8.1,0,7.3c0-0.2,0-0.5,0.1-0.7L1.6,2z"/>
</g>
<path id="Path_6888" class="st7" d="M67.9,13.4c-0.8-1-2-1.7-3.3-1.8H50.4c-1.2,0-2.1,0.9-2.1,2.1v2c0-1.2,0.9-2.1,2.1-2.1h15.9
	c0.8,0,1.5,0.3,2.2,0.7L67.9,13.4z"/>
<path id="Path_6889" class="st7" d="M41.8,11.7h-12c-1.2,0.1-2.3,0.8-2.8,2l-0.4,1.1c0.6-0.7,1.4-1.1,2.3-1.1h12.9
	c1.2,0,2.1,0.9,2.1,2.1v-2C43.9,12.6,43,11.7,41.8,11.7z"/>
<g id="Group_2761" transform="translate(35.424 24.539)">
	<rect id="Rectangle_380" x="0" y="0" class="st8" width="3" height="3"/>
	<rect id="Rectangle_381" x="3.1" y="3.1" class="st8" width="3" height="3"/>
	<rect id="Rectangle_382" x="6.1" y="0" class="st8" width="3" height="3"/>
	<rect id="Rectangle_383" x="9.1" y="3.1" class="st8" width="3" height="3"/>
	<rect id="Rectangle_384" x="12.2" y="0" class="st8" width="3" height="3"/>
	<rect id="Rectangle_385" x="15.2" y="3.1" class="st8" width="3" height="3"/>
	<rect id="Rectangle_386" x="18.3" y="0" class="st8" width="3" height="3"/>
	<rect id="Rectangle_387" x="21.3" y="3.1" class="st8" width="3" height="3"/>
	<rect id="Rectangle_388" x="24.4" y="0" class="st8" width="3" height="3"/>
</g>
<g id="Group_2762" transform="translate(35.424 24.539)">
	<rect id="Rectangle_389" x="24.4" y="3.1" class="st4" width="3" height="3"/>
	<rect id="Rectangle_390" x="21.3" y="0" class="st4" width="3" height="3"/>
	<rect id="Rectangle_391" x="18.3" y="3.1" class="st4" width="3" height="3"/>
	<rect id="Rectangle_392" x="15.2" y="0" class="st4" width="3" height="3"/>
	<rect id="Rectangle_393" x="12.2" y="3.1" class="st4" width="3" height="3"/>
	<rect id="Rectangle_394" x="9.1" y="0" class="st4" width="3" height="3"/>
	<rect id="Rectangle_395" x="6.1" y="3.1" class="st4" width="3" height="3"/>
	<rect id="Rectangle_396" x="3.1" y="0" class="st4" width="3" height="3"/>
	<rect id="Rectangle_397" x="0" y="3.1" class="st4" width="3" height="3"/>
</g>
<path id="Path_6890" class="st8" d="M26,32.4c-3.9,0-7,3.1-7,7s3.1,7,7,7s7-3.1,7-7C33,35.6,29.9,32.4,26,32.4L26,32.4z M26,43.3
	c-2.1,0-3.9-1.7-3.9-3.9c0-2.1,1.7-3.9,3.9-3.9c2.1,0,3.9,1.7,3.9,3.9S28.1,43.3,26,43.3L26,43.3z M98.5,31.8h-1.4l-0.6-4.7
	c-0.4-4-3.3-6.7-6.9-6.7h-9.8l-6-9.4c-2-2.9-5.1-4.7-8.6-5.2l-0.4-2.3c-0.3-2-2-3.4-4-3.4h-3.6c-2,0-3.7,1.5-4,3.4l-0.4,2.2H26.6
	c-3.8,0.1-7.1,2.6-8.3,6.3l-2.4,8.4H11c-3.8,0-6.9,3.1-6.9,6.9v4.5H3.5c-2,0-3.6,1.6-3.6,3.6v3.2c0,2,1.6,3.6,3.6,3.6H8
	c1.6,0,3-1,3.4-2.5h2.3C13.7,46.5,19.2,52,26,52s12.3-5.5,12.3-12.3l0,0h22.6c0,6.8,5.5,12.3,12.3,12.3s12.3-5.5,12.3-12.3l0,0h5.1
	c0.5,1.5,1.8,2.5,3.4,2.5h4.5c2,0,3.6-1.6,3.6-3.6v-3.2C102,33.4,100.4,31.8,98.5,31.8z M56.4,3.9c0.1-0.4,0.5-0.7,0.9-0.8h3.6
	c0.4,0,0.8,0.3,0.9,0.8l0.3,1.7h-5.9L56.4,3.9z M8.4,38.6C8.4,38.8,8.2,39,8,39H3.6c-0.2,0-0.4-0.2-0.4-0.4v-3.2
	c0-0.2,0.2-0.4,0.4-0.4h4.5c0.2,0,0.4,0.2,0.4,0.4L8.4,38.6L8.4,38.6z M26,48.6c-5,0-9.1-4.1-9.1-9.1s4.1-9.1,9.1-9.1
	s9.1,4.1,9.1,9.1l0,0C35.2,44.5,31.1,48.6,26,48.6z M73.2,48.6c-5,0-9.1-4.1-9.1-9.1s4.1-9.1,9.1-9.1s9.1,4.1,9.1,9.1
	C82.4,44.5,78.3,48.6,73.2,48.6L73.2,48.6L73.2,48.6z M90.4,35.4v1.1h-5.3c-1.7-6.6-8.4-10.6-14.9-8.9c-4.4,1.1-7.8,4.5-8.9,8.9H38
	c-1.7-6.6-8.3-10.6-14.9-8.9c-4.4,1.1-7.8,4.5-8.9,8.9h-2.5v-1.1c0-2-1.6-3.6-3.6-3.6H7.5v-4.5c0-2.1,1.7-3.7,3.7-3.7h6.1
	c0.7,0,1.3-0.5,1.5-1.1c0,0,0,0,0-0.1l2.7-9.5c0.8-2.3,2.9-3.8,5.3-4h37.6c2.7,0.2,5.2,1.6,6.8,3.8l6.4,10.2
	c0.3,0.5,0.8,0.7,1.3,0.7h10.7c1.7,0,3.5,1.2,3.7,3.9l0.5,4.3C92,31.9,90.4,33.4,90.4,35.4L90.4,35.4z M98.9,38.6
	c0,0.2-0.2,0.4-0.4,0.4H94c-0.2,0-0.4-0.2-0.4-0.4v-3.2c0-0.2,0.2-0.4,0.4-0.4h4.5c0.2,0,0.4,0.2,0.4,0.4V38.6z M69.3,12.6
	c-1.1-1.5-2.8-2.4-4.6-2.5H50.5c-2,0-3.7,1.7-3.7,3.7v4.4c0,2,1.7,3.7,3.7,3.7h19.8c1.4,0.1,2.7-0.9,2.9-2.3
	c0.1-0.7-0.1-1.4-0.6-1.9L69.3,12.6z M50.4,18.7c-0.3,0-0.5-0.2-0.5-0.5v-4.4c0-0.3,0.2-0.5,0.5-0.5h14.2c0.8,0.1,1.5,0.5,1.9,1.1
	l2.9,4.4L50.4,18.7z M41.8,10.1h-12c-1.9,0-3.6,1.3-4.3,3.1L24,17.8c-0.6,1.6,0.2,3.3,1.8,3.9c0.4,0.1,0.8,0.2,1.2,0.2h14.8
	c2,0,3.7-1.7,3.7-3.7v-4.4C45.5,11.7,43.9,10.1,41.8,10.1L41.8,10.1z M42.4,18.1c0,0.3-0.2,0.5-0.5,0.5H27.2l1.5-4.5
	c0.2-0.5,0.7-0.9,1.3-0.9h12c0.3,0,0.5,0.2,0.5,0.5L42.4,18.1L42.4,18.1L42.4,18.1z M73.2,32.4c-3.9,0-7,3.1-7,7s3.1,7,7,7
	s7-3.1,7-7S77.1,32.4,73.2,32.4L73.2,32.4z M73.2,43.3c-2.1,0-3.9-1.7-3.9-3.9s1.7-3.9,3.9-3.9s3.9,1.7,3.9,3.9S75.3,43.3,73.2,43.3
	L73.2,43.3z"/>
</svg>
