<?xml version="1.0" encoding="utf-8"?>
<!-- Generator: Adobe Illustrator 21.1.0, SVG Export Plug-In . SVG Version: 6.00 Build 0)  -->
<svg version="1.1" id="Capa_1" xmlns="http://www.w3.org/2000/svg" xmlns:xlink="http://www.w3.org/1999/xlink" x="0px" y="0px"
	 viewBox="0 0 671.7 500" style="enable-background:new 0 0 671.7 500;" xml:space="preserve">
<style type="text/css">
	.st0{fill:#1E81FF;}
	.st1{fill:#AFAFAF;}
	.st2{fill:#333E48;}
	.st3{fill:#F2F2F2;}
	.st4{fill:#283139;}
	.st5{fill:#0C0D19;}
</style>
<path id="Path_7018" class="st0" d="M659.5,46.7v21.1H65.1V46.7c0-19,15.4-34.5,34.5-34.5H625C644.1,12.2,659.5,27.6,659.5,46.7
	C659.5,46.7,659.5,46.7,659.5,46.7z"/>
<g id="Group_2786" transform="translate(-3564.151 1633.815)">
	<rect id="Rectangle_432" x="4121.7" y="-1566" class="st1" width="101.9" height="79.7"/>
	<rect id="Rectangle_433" x="4121.7" y="-1486.3" class="st1" width="101.9" height="190.2"/>
</g>
<path id="Path_7019" class="st2" d="M448.7,182.7l-35.8,3.9l-18.5,30.9l-7.5-71.5L448.7,182.7z"/>
<path id="Path_7020" class="st3" d="M557.6,147.5v190.2H65.1v-71.3V67.8l66.8,0h425.7L557.6,147.5z"/>
<path id="Path_7021" class="st2" d="M52.2,12.2h47.4c-19,0-34.5,15.4-34.5,34.5v324.5c0,19,15.4,34.5,34.5,34.5H52.2
	c-22.1,0-40-17.9-40-40V52.2C12.2,30.1,30.1,12.2,52.2,12.2z"/>
<path id="Path_7022" class="st4" d="M401.9,405.7l-20.2,82.1H234.5l20.2-82.1H401.9z"/>
<path id="Path_7023" class="st2" d="M659.5,337.7v33.5c0,19-15.4,34.5-34.5,34.5H99.5c-19,0-34.5-15.4-34.5-34.5v-33.5H659.5z"/>
<path id="Path_7024" class="st5" d="M625.1,0H52.2C23.4,0,0,23.4,0,52.2v313.5c0,28.8,23.4,52.2,52.2,52.2h187l-16.5,67
	c-1.6,6.5,2.4,13.2,8.9,14.8c1,0.2,1.9,0.4,2.9,0.4h243.8c6.7,0,12.2-5.5,12.2-12.2c0-6.7-5.5-12.2-12.2-12.2h-81.1l14.2-57.7h213.6
	c25.8,0,46.7-20.9,46.7-46.7V46.7C671.7,20.9,650.8,0,625.1,0z M77.3,254.3v-40.5 M77.3,189.3v-40.5 M77.3,124.4V80 M77,80h468.3
	v245.5H77.3v-46.9 M144,266.5 M569.8,159.7h77.5v165.8h-77.5V159.7z M569.8,135.3V80h77.5v55.3L569.8,135.3z M647.3,46.7v8.9H77.3
	v-8.9c0-12.3,10-22.2,22.3-22.3h525.5C637.3,24.4,647.3,34.4,647.3,46.7L647.3,46.7z M24.4,365.7V52.2c0-15.3,12.4-27.7,27.8-27.8
	h6.3c-3.7,6.8-5.7,14.5-5.7,22.3v324.5c0,7.8,1.9,15.4,5.7,22.3h-6.3C36.9,393.5,24.4,381,24.4,365.7z M372.2,475.6H250.1l14.2-57.7
	h122L372.2,475.6z M625.1,393.5H99.5c-12.3,0-22.3-10-22.3-22.3V350h570.1v21.2C647.3,383.5,637.3,393.5,625.1,393.5L625.1,393.5z"
	/>
<g>
	<g>
		<path id="Path_7027" class="st5" d="M366.9,184.2h-164c-7.3,0-13.2,5.9-13.2,13.2c0,7.3,5.9,13.2,13.2,13.2c0,0,0,0,0,0h164
			c7.3,0,13.2-5.9,13.2-13.2C380.1,190.1,374.2,184.2,366.9,184.2z"/>
		<path id="Path_7027_1_" class="st0" d="M291,230.8h-88.2c-8.7,0-15.4,8.3-12.6,17.4c1.7,5.4,6.9,9,12.6,9l0,0H291
			c7.3,0,13.2-5.9,13.2-13.2C304.3,236.7,298.3,230.8,291,230.8z"/>
		<g>
			<path id="Path_7026" class="st5" d="M312.7,137.5h-77.3c-7.3,0-13.2,5.9-13.2,13.2c0,7.3,5.9,13.2,13.2,13.2c0,0-32.5,0-32.5,0
				h109.8c7.3,0,13.2-5.9,13.2-13.2C325.9,143.4,320,137.5,312.7,137.5z"/>
			<circle class="st0" cx="202.8" cy="150.8" r="13.2"/>
		</g>
	</g>
	<g>
		<polygon class="st2" points="426.5,178.3 432.4,233.5 448.2,209.8 472.1,205.9 		"/>
		<path id="Path_7025" class="st5" d="M486.1,198.3l-58.7-34.9c-3.8-2.2-8.7-1-10.9,2.8c-0.9,1.5-1.2,3.2-1.1,4.9l7.1,67.9
			c0.5,4.4,4.4,7.5,8.7,7.1c2.5-0.3,4.7-1.7,6-3.8l11-18.3l19,29.7c2.4,3.7,7.3,4.8,11,2.4c3.7-2.4,4.8-7.3,2.4-11l-19-29.7
			l21.3-2.3c4.4-0.5,7.5-4.4,7-8.8C489.6,201.8,488.2,199.6,486.1,198.3L486.1,198.3z M435.8,213.7l-3-28.5l24.7,14.6l-10.3,1.1
			c-2.5,0.3-4.7,1.7-6,3.8L435.8,213.7z"/>
	</g>
</g>
</svg>
