<?xml version="1.0" encoding="utf-8"?>
<!-- Generator: Adobe Illustrator 21.1.0, SVG Export Plug-In . SVG Version: 6.00 Build 0)  -->
<svg version="1.1" id="Capa_1" xmlns="http://www.w3.org/2000/svg" xmlns:xlink="http://www.w3.org/1999/xlink" x="0px" y="0px"
	 viewBox="0 0 1366.6 767" style="enable-background:new 0 0 1366.6 767;" xml:space="preserve">
<style type="text/css">
	.st0{fill:#FFFFFF;}
	.st1{fill:#0C0D19;}
</style>
<rect id="Rectangle_50" x="0.6" class="st0" width="1366" height="767"/>
<path class="st1" d="M1359.6,754.3c-0.6-4.8-3-9.2-6.6-12.4v-63.4v-11.4c0-4.1-3.4-7.5-7.5-7.5h-26.8l1.2-1.2c1-1,1-2.6,0-3.5
	c0,0,0,0,0,0c-2.7-2.6-5.6-4.9-8.8-6.8c-0.1-0.2-0.3-0.4-0.4-0.5c-0.1-0.1-0.2-0.3-0.3-0.4c-0.2-0.3-0.5-0.6-0.7-0.9
	c0-0.1-0.1-0.1-0.1-0.2c-2.9-3.5-6.4-6.2-10.3-8.1c0,0-0.1,0-0.1,0c-0.4-0.2-0.8-0.4-1.2-0.6c-0.1,0-0.2-0.1-0.3-0.1
	c-0.4-0.1-0.7-0.3-1.1-0.4c-0.1,0-0.3-0.1-0.4-0.1c-0.3-0.1-0.7-0.2-1-0.3c-0.2,0-0.3-0.1-0.5-0.1c-0.3-0.1-0.6-0.2-1-0.3
	c-0.2,0-0.3-0.1-0.5-0.1c-0.3-0.1-0.7-0.2-1-0.2c-0.1,0-0.3-0.1-0.4-0.1c-0.4-0.1-0.8-0.1-1.2-0.2c-0.1,0-0.2,0-0.3,0
	c-0.5-0.1-0.9-0.1-1.4-0.2c0,0,0,0-0.1,0c-6-0.6-12.1,0.5-17.7,3.5c0,0,0,0-0.1,0c-0.4,0.2-0.7,0.4-1.1,0.6c-0.1,0-0.2,0.1-0.2,0.1
	c-0.3,0.2-0.7,0.4-1,0.6c-0.1,0.1-0.2,0.1-0.3,0.2c-0.1,0.1-0.2,0.1-0.3,0.2c-0.2,0.2-0.4,0.3-0.7,0.5c-0.1,0-0.1,0.1-0.2,0.1
	c-0.3,0.3-0.7,0.5-1,0.8c-0.1,0-0.1,0.1-0.2,0.1c-0.3,0.3-0.7,0.6-1,0.8c0,0-0.1,0.1-0.1,0.1c-0.3,0.3-0.6,0.6-0.9,0.9
	c0,0-0.1,0.1-0.1,0.1c-0.3,0.3-0.6,0.6-0.9,0.9c-0.1,0.1-0.1,0.1-0.2,0.2c-0.3,0.3-0.5,0.6-0.8,0.9c-0.1,0.1-0.1,0.2-0.2,0.3
	c-0.2,0.3-0.5,0.6-0.7,0.9c-0.1,0.1-0.2,0.2-0.3,0.4c-0.2,0.3-0.4,0.5-0.6,0.8c-0.1,0.2-0.2,0.3-0.3,0.5c-0.1,0.1-0.2,0.3-0.3,0.4
	c-2.7,1.8-5.2,3.9-7.6,6.2c-1,1-1,2.6,0,3.5c0,0,0,0,0,0l0.7,0.7h-26.8c-4.1,0-7.5,3.4-7.5,7.5v74.4c-3.9,3.2-6.5,7.8-7.1,12.8h-6.1
	l0,0h-18v-19.1c1.8-0.5,3-2.1,3-4v-5.5c0-2.3-1.9-4.1-4.1-4.1h-25.9l-4.7-76.6c0-0.3-0.1-0.5-0.2-0.8c0-0.3,0-0.6-0.1-0.9
	c0.9-0.5,1.8-1,2.6-1.7c7.8,3.7,17.1,0.3,20.8-7.5c3.7-7.8,0.3-17.1-7.5-20.8c-5.4-2.5-11.8-1.8-16.5,2c-7.8-3.7-17.1-0.3-20.8,7.5
	c-0.7,1.5-1.2,3.1-1.4,4.8c-7.6,2.1-12.9,8.7-13.3,16.6c-0.1,0.2-0.2,0.5-0.2,0.8l-2.1,34.6c-0.6-0.2-1.3-0.1-1.9,0.1
	c-1.1,0.5-1.8,1.6-1.8,2.8v6.9l-8.7-8.7c-0.9-1.1-2.4-1.5-3.8-1c-1.1,0.5-1.8,1.6-1.8,2.8v6.9l-8.7-8.7c-0.9-1.1-2.4-1.5-3.8-1
	c-1.1,0.5-1.8,1.6-1.8,2.8v6.9l-8.7-8.7c-0.9-1.1-2.4-1.5-3.8-1c-1.1,0.5-1.8,1.6-1.8,2.8v6.9l-8.7-8.7c-0.9-1.1-2.4-1.5-3.8-1
	c-1.1,0.5-1.8,1.6-1.8,2.8v71.8h-7.3c-0.2,0-0.3,0-0.5,0h-21.1v-92.2c0-6-4.2-11.1-10.1-12.3v-9.1h0.3c2.7,0,4.8-2.2,4.8-4.8v-9
	c0-2.7-2.2-4.8-4.8-4.8h-39.9v-4.6c0-3.2-2.6-5.8-5.8-5.8h-21.7c-3.2,0-5.8,2.6-5.8,5.8v4.6h-7.5c-2.7,0-4.8,2.2-4.8,4.8v9
	c0,2.7,2.2,4.8,4.8,4.8h0.3v113.7h-23.4v-54.7c2.1-0.5,3.6-2.4,3.6-4.6v-4.3c0-2.3-1.7-4.3-4-4.7l-8.4-14.1c-1.6-2.4-4.2-3.9-7.1-4
	h-50.3l-5-8c-0.6-1-1.5-1.9-2.6-2.5v-4.4h26.2c1.4,0,2.5-1.1,2.5-2.5v-16.5c0-1.4-1.1-2.5-2.5-2.5h-26.2c-0.1-1.4-1.3-2.4-2.7-2.3
	c-1.3,0.1-2.3,1.2-2.3,2.5v25.7c-1.1,0.6-2,1.4-2.6,2.5l-5,8h-49.7c-2.9,0.1-5.5,1.6-7.1,4l-8.3,14c-2.6,0-4.7,2.1-4.7,4.7v4.3
	c0,2.2,1.5,4.1,3.6,4.6v54.7c-0.5,0-0.9,0.1-1.3,0.3c-0.4-0.2-0.9-0.3-1.4-0.3H753c2.1-2.5,3.3-5.7,3.3-8.9c0-3.3-1.2-10.4-3.5-17.1
	c-3-9-6.4-13.3-10.4-13.3c-4,0-7.4,4.4-10.4,13.3c-2.3,6.8-3.5,13.9-3.5,17.1c0,3.3,1.2,6.4,3.3,8.9h-8.3c2.1-2.5,3.3-5.7,3.3-8.9
	c0-3.3-1.2-10.4-3.5-17.1c-2.4-7.1-5-11.3-8-12.7v-36H756c1.2,0,2.3-0.5,3.1-1.4c1-1.1,1.4-2.5,1.4-3.9
	c-1.6-15.7-15.5-27.1-31.2-25.6c-5.1,0.5-9.9,2.3-14,5.3v-15.4c0-3.2-2.6-5.8-5.8-5.8h-4.5l-18.5-14.8c-2.4-1.9-5.8-1.9-8.3,0
	l-7.7,6.2c-5.6-2.8-12.1-3.3-18.1-1.3c-12.2-9.9-30.2-8.1-40.1,4.1c-3.5,4.3-5.7,9.6-6.3,15.2c-0.1,1.4,0.4,2.8,1.4,3.9
	c0.8,0.9,1.9,1.4,3.1,1.4h39v68c-3,1.5-5.6,5.7-7.9,12.7c-2.3,6.8-3.5,13.9-3.5,17.1c0,3.3,1.2,6.4,3.3,8.9h-8.3
	c2.1-2.5,3.3-5.7,3.3-8.9c0-3.3-1.2-10.4-3.5-17.1c-3-9-6.4-13.3-10.4-13.3c-4,0-7.4,4.4-10.4,13.3c-2.3,6.8-3.5,13.9-3.5,17.1
	c0,3.3,1.2,6.4,3.3,8.9h-4c-1.9-0.2-4.5-0.2-6.6-0.1v-18c0-2.4-0.9-4.6-2.6-6.3c0.8-3.3,1.5-6.7,1.9-10.1l0.1,0
	c6.4-22.9,5.9-39.1-1.6-48.5c-0.7-13.6-5.3-21.7-13.5-24.1c-8.3-2.5-20-2-32.1,1.3c-13.1,3.6-25.2,9.9-35.7,18.6
	c-8.6-4.6-16.2-8.4-23.7-9.5c-9.2-1.4-17.1,1.5-24.7,9.1c-6.7,6.7-10.9,15.8-12.4,26.9c-1.2,8.7-0.8,18.8,1.3,29.9
	c2,10.5,5,20.9,9,30.8h-21.9c-0.3-0.1-0.5-0.1-0.8-0.1h-5.7v-69.8c3.2,0,5.7-2.6,5.7-5.8V671c0-3.2-2.6-5.8-5.8-5.8h-17.9
	l-29.3-29.3c-3.1-3.1-8.1-3.1-11.2,0l-7.9,7.9v-4.5c0-4.4-3.5-7.9-7.9-7.9h-19c-4.4,0-7.9,3.5-7.9,7.9v7.5c-0.9-0.4-1.9-0.6-2.9-0.6
	h-19c-4.4,0-7.9,3.5-7.9,7.9v11.1h-10.1c-3.2,0-5.8,2.6-5.8,5.8v7.8c0,3.2,2.6,5.8,5.7,5.8v69.8h-5.7c-0.2,0-0.5,0-0.7,0.1h-7.6
	V652.2c2.3-0.8,3.8-3,3.8-5.4V639c0-3.2-2.6-5.8-5.8-5.8h-51.9c-3.2,0-5.8,2.6-5.8,5.8v7.7c0,1.4,0.5,2.7,1.4,3.8h-6.6v-5.5
	c0-3.2-2.6-5.8-5.8-5.8h-41c-3.2,0-5.8,2.6-5.8,5.8v5.5h-15.2c-3.2,0-5.8,2.6-5.8,5.8v7.7c0,2.6,1.7,4.8,4.1,5.6v84.8h-12.9
	c-0.1-0.1-0.3-0.1-0.6-0.1h-4.7c-0.5-4.7-2.8-9.1-6.2-12.3V705c3.4,1.6,7.6,0.2,9.2-3.2c1.5-3.2,0.4-7-2.6-8.9l-59.8-37.2
	c-2.2-1.4-5.1-1.4-7.3,0l-16.4,10.2v-2.7c0-2.8-2.3-5.1-5.1-5.1h-21c-2.8,0-5.1,2.3-5.1,5.1v22.2l-12,7.5c-3.2,2-4.2,6.3-2.2,9.5
	c1.9,3,5.7,4.1,8.8,2.6V742c-3.5,3.2-5.7,7.6-6.2,12.3H0v12.6l135.4,0v-0.1l156.4,0c0.3,0,0.5,0,0.7-0.1h151.7c0.2,0,0.3,0,0.5-0.1
	l161,0.1c0.1,0,0.1,0,0.2,0h152.7c0.6,0,1.1-0.1,1.6-0.3c0.4,0.2,0.9,0.3,1.4,0.3h152.7c0,0,0,0,0.1,0h141.8c0.2,0,0.3,0,0.5-0.1
	h148.6v0.1l161.4-0.1v-12.4v0H1359.6z M1017.3,754.4v-26h5.1v26H1017.3z M1022.4,723.4l-5.1,0V703h5.1V723.4z M1022.4,698.1l-5.1,0
	v-20.4h5.1V698.1z M1022.4,662.1v10.6h-5.1v-17.8C1020.4,656,1022.4,658.9,1022.4,662.1z M377.2,665.2h-4.9v-4.9L377.2,665.2z"/>
</svg>
